<?xml version="1.0" standalone="no"?>
<!DOCTYPE svg PUBLIC "-//W3C//DTD SVG 20010904//EN"
 "http://www.w3.org/TR/2001/REC-SVG-20010904/DTD/svg10.dtd">
<svg version="1.0" xmlns="http://www.w3.org/2000/svg"
 width="800.000000pt" height="800.000000pt" viewBox="0 0 800.000000 800.000000"
 preserveAspectRatio="xMidYMid meet">

<g transform="translate(0.000000,800.000000) scale(0.100000,-0.100000)"
fill="#000000" stroke="none">
<path d="M3689 6465 c-2 -100 -47 -148 -152 -161 l-62 -8 58 -8 c105 -14 144
-48 156 -139 8 -56 15 -52 25 16 11 76 53 110 153 123 l58 8 -61 8 c-34 4 -76
16 -93 27 -35 21 -61 71 -61 116 0 15 -5 35 -10 43 -7 11 -10 5 -11 -25z"/>
<path d="M3277 6455 c-3 -22 -9 -71 -13 -110 -15 -163 -50 -274 -107 -333 -62
-65 -144 -93 -347 -118 -68 -8 -126 -16 -127 -18 -2 -2 37 -6 86 -10 174 -13
281 -41 354 -93 81 -57 116 -143 142 -353 7 -62 15 -114 18 -116 2 -3 8 33 11
78 15 172 46 282 100 353 52 67 197 116 394 131 51 3 91 8 90 10 -2 1 -60 10
-128 18 -156 20 -232 39 -289 74 -97 59 -141 167 -165 402 -10 101 -14 117
-19 85z"/>
<path d="M3515 5394 c-4 -16 -11 -42 -15 -59 -5 -16 -37 -140 -70 -275 -34
-135 -64 -253 -66 -262 -5 -17 47 -18 990 -18 l995 0 12 43 c6 23 15 55 20 71
5 16 9 32 9 37 0 9 -43 22 -280 83 -96 24 -274 70 -395 102 -121 31 -321 83
-445 114 -124 32 -333 86 -465 120 -314 82 -283 78 -290 44z"/>
<path d="M4127 3343 c155 -2 411 -2 570 0 158 1 32 2 -282 2 -313 0 -443 -1
-288 -2z"/>
<path d="M2965 3323 c-51 -13 -151 -81 -177 -121 -58 -87 14 -173 212 -255
216 -89 638 -147 1075 -147 533 0 996 82 1202 212 75 48 111 103 99 151 -12
51 -120 136 -205 162 -21 6 -21 5 8 -26 54 -56 54 -104 1 -156 -31 -30 -168
-103 -194 -103 -7 0 -33 -7 -57 -15 -55 -20 -265 -60 -384 -74 -386 -45 -770
-35 -1140 30 -261 46 -428 119 -474 207 -16 31 -1 75 39 113 16 16 26 28 22
28 -4 -1 -16 -4 -27 -6z"/>
<path d="M3935 3325 c12 -5 126 -35 300 -80 220 -57 475 -123 575 -149 52 -14
98 -22 101 -18 7 7 59 220 59 240 0 9 -127 12 -522 11 -288 0 -518 -2 -513 -4z"/>
<path d="M2145 2690 c-5 -9 -27 -481 -23 -486 3 -2 36 -5 74 -7 l69 -2 3 78
c2 66 5 78 18 73 9 -3 26 -6 39 -6 18 0 33 -17 70 -75 25 -41 50 -77 55 -80 5
-3 32 6 61 20 58 30 58 34 14 133 -23 50 -23 55 -9 77 57 87 21 215 -73 261
-31 16 -61 19 -166 19 -71 0 -130 -2 -132 -5z m216 -121 c70 -37 22 -143 -57
-123 -22 6 -24 11 -24 70 l0 64 31 0 c17 0 39 -5 50 -11z"/>
<path d="M5730 2680 c-70 -24 -120 -75 -120 -124 0 -21 16 -64 40 -110 22 -41
40 -82 40 -90 0 -21 -48 -56 -76 -56 -27 0 -29 -11 -13 -76 11 -42 13 -44 50
-44 54 0 140 35 174 70 41 43 45 110 11 170 -65 114 -66 142 -4 155 18 4 36 9
39 11 9 5 -10 85 -24 102 -13 17 -53 15 -117 -8z"/>
<path d="M2948 2529 l-3 -161 -28 -24 c-35 -30 -78 -31 -112 -1 -24 20 -26 30
-31 127 -3 58 -7 129 -10 158 l-5 52 -71 0 -70 0 7 -157 c8 -189 15 -222 61
-273 99 -110 297 -88 378 43 27 43 29 56 34 166 2 65 1 144 -2 175 l-7 56 -69
0 -69 0 -3 -161z"/>
<path d="M3275 2683 c-118 -5 -115 -3 -115 -79 l0 -65 58 2 57 3 3 -45 c2 -24
6 -105 10 -179 l7 -135 70 3 c39 2 73 7 77 10 3 4 2 83 -4 175 -5 93 -8 170
-5 173 2 3 27 7 56 11 56 6 59 11 45 96 l-7 37 -91 -2 c-50 -1 -122 -3 -161
-5z"/>
<path d="M3620 2440 l0 -251 78 3 77 3 3 45 c2 25 1 136 -3 248 l-7 202 -74 0
-74 0 0 -250z"/>
<path d="M3877 2683 c-15 -4 -16 -13 -12 -71 3 -37 10 -145 15 -240 5 -95 12
-176 14 -181 6 -9 127 7 137 17 4 4 0 54 -7 112 -16 128 -18 178 -4 164 5 -5
44 -72 88 -149 l78 -140 66 -3 66 -3 6 73 c10 113 23 412 19 418 -2 2 -32 6
-67 8 l-63 4 -6 -68 c-4 -38 -7 -100 -7 -137 0 -38 -4 -66 -9 -63 -4 3 -34 49
-65 101 -32 53 -71 112 -88 131 -28 32 -34 34 -87 33 -31 -1 -64 -3 -74 -6z"/>
<path d="M4440 2440 l0 -251 78 3 c77 3 77 3 76 31 0 15 -1 126 -2 247 l-2
220 -75 0 -75 0 0 -250z"/>
<path d="M4763 2681 c-50 -3 -94 -9 -98 -12 -3 -4 -3 -35 1 -69 l7 -62 53 4
53 3 5 -50 c3 -27 8 -106 11 -175 4 -68 8 -127 10 -130 2 -3 35 -3 75 -2 l72
4 -7 161 c-3 89 -8 169 -11 178 -5 17 30 29 82 29 23 0 24 3 24 65 l0 65 -92
-2 c-51 -1 -134 -4 -185 -7z"/>
<path d="M5189 2648 c-18 -24 -49 -79 -70 -124 -45 -94 -112 -290 -105 -303 6
-9 84 -31 111 -31 9 0 21 13 26 30 11 29 13 30 74 30 l62 0 7 38 c3 20 6 49 6
65 0 25 -3 27 -40 27 -22 0 -40 5 -40 11 0 16 42 109 49 109 4 0 20 -30 36
-67 16 -38 48 -110 71 -161 l43 -92 67 25 c38 14 69 27 71 29 2 2 -45 105
-106 230 l-109 226 -61 0 c-60 0 -61 -1 -92 -42z"/>
<path d="M4109 2092 l-56 -3 -6 -97 c-4 -53 -7 -118 -7 -144 l0 -48 39 0 c38
0 39 1 45 44 6 38 9 43 29 39 13 -3 35 -23 51 -49 28 -44 28 -44 57 -29 33 17
36 33 14 75 -13 25 -13 33 0 63 10 25 12 43 5 69 -18 65 -63 86 -171 80z m72
-81 c20 -16 22 -23 13 -38 -6 -10 -23 -19 -38 -21 -24 -3 -26 0 -26 31 0 52
13 59 51 28z"/>
<path d="M5686 2060 c-14 -22 -30 -40 -34 -40 -5 0 -23 16 -42 35 -19 19 -36
35 -39 35 -4 -1 -19 -12 -35 -25 l-30 -24 42 -45 c23 -25 42 -50 42 -54 0 -5
-18 -32 -40 -59 l-39 -50 30 -22 31 -23 45 43 45 44 33 -38 c37 -42 57 -43 90
-6 18 19 18 21 -23 62 -23 24 -42 46 -42 49 0 4 14 28 31 53 35 52 34 63 -9
87 l-30 18 -26 -40z"/>
<path d="M2210 2043 c0 -27 -3 -92 -7 -145 l-6 -98 40 0 c42 0 53 11 53 50 0
13 10 19 45 22 60 7 92 30 106 77 9 32 9 44 -6 75 -24 51 -59 66 -150 66 l-75
0 0 -47z m140 -38 c7 -8 10 -25 6 -40 -5 -20 -13 -25 -36 -25 -27 0 -30 3 -30
33 0 19 3 37 7 40 11 12 40 8 53 -8z"/>
<path d="M2508 2083 l-26 -4 4 -102 c7 -156 13 -190 31 -183 8 3 46 6 84 6
l69 0 0 41 0 41 -47 -4 c-38 -2 -48 0 -48 12 0 10 12 16 33 18 29 3 32 6 32
38 0 32 -2 34 -35 34 -24 0 -35 5 -35 15 0 9 9 15 23 15 52 0 68 11 65 44 -3
31 -3 31 -63 32 -33 1 -72 -1 -87 -3z"/>
<path d="M2715 2080 c-3 -5 -3 -71 1 -145 l7 -135 39 0 c22 0 41 5 43 13 3 6
1 42 -3 80 -5 37 -6 67 -3 67 3 0 17 -21 31 -48 35 -65 65 -65 100 0 29 54 45
72 37 43 -3 -11 -8 -50 -12 -87 l-7 -68 45 0 44 0 6 107 c4 58 7 123 7 145 0
37 -1 38 -38 38 -42 0 -61 -16 -101 -82 -13 -21 -26 -38 -31 -38 -4 0 -25 27
-46 60 -35 56 -41 60 -75 60 -21 0 -41 -4 -44 -10z"/>
<path d="M3196 2079 c-31 -18 -130 -248 -114 -264 3 -3 21 -8 40 -12 30 -4 36
-2 40 15 5 18 11 20 42 15 35 -5 36 -5 36 26 0 17 1 34 3 39 1 4 -8 8 -21 10
-18 3 -22 8 -16 25 18 60 36 40 95 -110 9 -25 31 -28 70 -10 l27 12 -59 125
c-33 68 -65 128 -72 132 -17 11 -49 9 -71 -3z"/>
<path d="M3437 2084 c-4 -4 -7 -70 -7 -146 l0 -139 48 3 47 3 0 140 0 140 -40
3 c-23 2 -44 0 -48 -4z"/>
<path d="M3580 2028 c0 -35 3 -100 7 -146 l6 -83 41 3 c29 2 41 7 40 18 0 8
-4 47 -8 85 -8 82 -4 80 54 -27 41 -76 43 -78 80 -78 38 0 38 0 44 48 3 26 7
90 8 142 l3 95 -37 3 c-36 3 -37 3 -42 -40 -3 -24 -7 -58 -8 -77 l-3 -33 -50
73 c-48 71 -52 74 -92 77 l-43 3 0 -63z"/>
<path d="M4390 2068 c-67 -45 -90 -140 -50 -205 28 -47 91 -76 143 -68 145 24
196 168 93 265 -40 36 -137 41 -186 8z m135 -68 c41 -45 12 -130 -43 -130 -38
0 -72 37 -72 77 0 64 74 98 115 53z"/>
<path d="M4702 2083 l-33 -4 6 -122 c4 -67 8 -128 11 -135 12 -41 143 -38 194
5 34 28 41 81 15 103 -13 11 -13 16 1 43 15 28 15 33 0 64 -24 50 -71 61 -194
46z m102 -59 c25 -10 19 -43 -10 -54 -35 -14 -34 -14 -34 25 0 36 10 42 44 29z
m17 -130 c11 -14 10 -18 -6 -30 -24 -18 -45 -18 -45 0 0 8 -3 21 -6 30 -8 22
39 22 57 0z"/>
<path d="M4965 1949 c-4 -77 -6 -142 -4 -144 2 -2 42 -5 89 -6 l85 -4 3 43 3
42 -47 0 -47 0 7 105 7 105 -45 0 -44 0 -7 -141z"/>
<path d="M5240 2068 c-49 -33 -72 -82 -67 -140 5 -61 29 -95 82 -119 74 -33
163 -5 206 63 15 26 19 45 16 86 -3 45 -9 59 -40 90 -33 32 -43 36 -99 40 -53
3 -68 0 -98 -20z m139 -74 c12 -15 21 -37 21 -49 0 -35 -37 -75 -70 -75 -35 0
-70 40 -70 81 0 65 80 93 119 43z"/>
</g>
</svg>
