<?xml version="1.0" standalone="no"?>
<!DOCTYPE svg PUBLIC "-//W3C//DTD SVG 20010904//EN"
 "http://www.w3.org/TR/2001/REC-SVG-20010904/DTD/svg10.dtd">
<svg version="1.0" xmlns="http://www.w3.org/2000/svg"
 width="800.000000pt" height="311.000000pt" viewBox="0 0 800.000000 311.000000"
 preserveAspectRatio="xMidYMid meet">

<g transform="translate(0.000000,311.000000) scale(0.100000,-0.100000)"
fill="#000000" stroke="none">
<path d="M6311 2747 c-1 -40 -51 -87 -93 -88 -33 -1 -32 -1 8 -10 48 -11 68
-31 82 -79 9 -31 10 -32 11 -9 1 41 36 77 84 87 32 8 36 10 15 11 -59 2 -86
29 -101 96 -3 14 -5 12 -6 -8z"/>
<path d="M6048 2730 c-3 -8 -10 -49 -15 -92 -22 -168 -82 -219 -288 -244 l-60
-8 69 -7 c203 -22 266 -79 283 -257 6 -63 23 -69 23 -8 0 16 9 59 20 95 33
113 96 154 253 168 80 7 81 7 37 15 -141 25 -169 32 -207 54 -61 35 -89 99
-103 234 -3 36 -9 58 -12 50z"/>
<path d="M475 2358 c9 -55 25 -172 25 -190 0 -13 -31 -33 -101 -69 -69 -34
-98 -54 -91 -61 5 -5 57 -19 115 -30 102 -19 106 -21 112 -49 6 -28 8 -29 68
-29 38 0 66 5 76 14 14 12 28 12 100 0 46 -8 97 -14 113 -12 l28 3 -70 78
c-46 51 -70 86 -70 102 0 35 52 89 107 113 105 45 202 57 458 57 294 0 552
-30 859 -101 60 -14 110 -23 113 -21 4 4 -180 51 -358 91 -81 18 -273 51 -417
72 -151 21 -527 30 -633 14 -111 -16 -186 -43 -226 -82 l-33 -32 -83 82 c-45
45 -86 82 -90 82 -4 0 -5 -15 -2 -32z"/>
<path d="M1178 2095 c-4 -4 -51 -8 -105 -9 l-98 -1 -3 -77 -3 -77 261 0 c206
0 260 2 260 13 0 24 -73 97 -122 122 -50 25 -175 44 -190 29z"/>
<path d="M6186 2030 c-9 -40 -16 -79 -16 -86 0 -12 56 -14 333 -13 l332 1 -70
19 c-38 11 -119 33 -180 49 -233 61 -341 89 -361 95 -20 6 -23 0 -38 -65z"/>
<path d="M2057 2083 c-4 -3 -7 -39 -7 -80 l0 -73 100 0 100 0 0 61 c0 94 -6
99 -104 99 -45 0 -86 -3 -89 -7z"/>
<path d="M2590 2074 c-113 -7 -217 -13 -232 -13 -28 -1 -28 -2 -28 -66 l0 -65
256 0 257 0 -8 72 c-7 79 -10 89 -28 87 -7 -1 -104 -8 -217 -15z"/>
<path d="M4600 2074 c-113 -7 -217 -13 -232 -13 -31 -1 -34 -17 -22 -93 l7
-38 248 0 249 0 0 68 c0 65 -11 94 -34 91 -6 -1 -103 -8 -216 -15z"/>
<path d="M5763 2070 c-71 -25 -104 -50 -131 -99 l-24 -41 174 2 173 3 -1 35
c-1 19 -7 54 -13 78 l-12 42 -57 0 c-31 -1 -81 -9 -109 -20z"/>
<path d="M2950 2005 l0 -75 99 0 100 0 6 43 c4 24 5 56 3 73 l-3 29 -102 3
-103 3 0 -76z"/>
<path d="M3281 2066 c-7 -8 -9 -35 -5 -75 l7 -61 149 0 148 0 -26 43 c-15 23
-38 57 -52 75 l-24 32 -93 0 c-66 0 -96 -4 -104 -14z"/>
<path d="M3730 2005 l0 -75 89 0 89 0 6 31 c3 17 6 48 6 69 0 45 -11 50 -117
50 l-73 0 0 -75z"/>
<path d="M4047 2073 c-4 -3 -7 -37 -7 -75 l0 -68 105 0 105 0 0 75 0 75 -98 0
c-54 0 -102 -3 -105 -7z"/>
<path d="M5061 2045 c-17 -20 -40 -53 -51 -75 l-20 -40 165 0 166 0 -38 73
-38 72 -76 3 -76 3 -32 -36z"/>
<path d="M1633 2063 c-21 -4 -23 -10 -23 -69 l0 -64 100 0 c113 0 107 -6 94
94 l-7 46 -71 -1 c-39 -1 -81 -4 -93 -6z"/>
<path d="M5977 1202 c-31 -99 -74 -278 -69 -283 4 -3 93 -28 197 -54 105 -26
361 -92 569 -146 208 -55 386 -99 395 -99 12 0 22 24 39 93 13 50 36 144 52
207 60 238 70 282 70 290 0 6 -260 9 -624 10 -584 0 -624 -1 -629 -18z"/>
<path d="M1064 1182 l-72 -3 -6 -82 c-3 -45 -8 -130 -12 -189 l-6 -108 25 0
c13 0 39 -3 56 -6 30 -6 31 -5 31 27 0 69 7 76 58 72 188 -16 221 247 36 284
-21 4 -71 7 -110 5z m100 -105 c21 -16 24 -60 6 -82 -8 -10 -25 -15 -44 -13
-28 3 -31 7 -34 42 -2 21 -1 44 2 52 7 18 47 18 70 1z"/>
<path d="M3446 1145 c-3 -22 -8 -109 -12 -192 l-7 -153 57 0 56 0 0 54 c0 61
4 66 42 59 19 -4 37 -22 63 -65 28 -45 41 -58 54 -53 9 4 28 12 44 17 33 12
33 14 4 86 -22 53 -23 60 -9 81 22 32 20 106 -4 138 -45 60 -67 68 -179 68
l-103 0 -6 -40z m172 -61 c49 -34 15 -104 -44 -90 -21 6 -24 12 -24 50 0 23 3
46 7 49 11 12 37 8 61 -9z"/>
<path d="M3945 1177 c-59 -20 -88 -42 -113 -85 -83 -148 24 -318 187 -299 170
20 249 172 162 309 -45 72 -147 104 -236 75z m128 -107 c34 -27 44 -87 23
-129 -45 -87 -162 -60 -173 40 -4 38 -1 50 22 77 21 26 34 32 65 32 22 0 48
-8 63 -20z"/>
<path d="M4398 1185 c-3 -3 -31 -9 -63 -13 l-58 -7 1 -75 c1 -41 5 -119 8
-173 8 -118 16 -127 113 -127 83 0 136 17 167 53 29 35 32 94 6 127 -18 22
-18 24 0 60 17 34 18 41 5 72 -20 48 -46 66 -107 78 -61 12 -65 12 -72 5z m60
-91 c39 -27 21 -67 -35 -79 l-33 -7 0 45 c0 24 3 47 7 50 11 12 37 8 61 -9z
m3 -154 c29 -16 25 -56 -8 -67 -41 -15 -53 -6 -53 38 0 33 3 39 21 39 11 0 29
-5 40 -10z"/>
<path d="M5085 1177 c-60 -20 -94 -46 -116 -88 -78 -153 28 -315 193 -296 163
20 245 175 161 305 -48 73 -151 107 -238 79z m122 -102 c32 -23 47 -77 33
-120 -6 -19 -21 -42 -33 -50 -59 -41 -147 7 -147 80 0 39 22 90 42 98 27 11
84 6 105 -8z"/>
<path d="M5634 1142 c-21 -26 -41 -51 -46 -56 -4 -6 -28 13 -57 44 l-48 55
-42 -29 c-22 -16 -41 -34 -41 -40 0 -7 21 -32 46 -56 71 -70 71 -69 8 -146
l-56 -68 33 -28 c18 -16 39 -28 45 -28 7 0 35 25 63 56 l51 56 51 -56 c28 -31
54 -56 58 -56 3 1 24 16 46 35 l40 34 -46 48 c-79 83 -77 76 -30 142 22 33 41
66 41 74 0 8 -18 26 -39 40 l-39 26 -38 -47z"/>
<path d="M1372 1173 l-23 -5 6 -126 c3 -70 8 -156 11 -191 l6 -64 66 7 c37 3
88 6 115 6 l47 0 0 50 0 50 -65 0 c-63 0 -65 1 -65 25 0 23 4 25 45 25 l45 0
0 39 0 40 -47 3 c-41 3 -48 6 -51 26 -3 18 1 22 26 22 16 0 44 3 61 6 29 6 31
9 31 50 l0 44 -92 -1 c-51 -1 -103 -4 -116 -6z"/>
<path d="M1657 1173 c-4 -7 11 -375 16 -379 1 -1 26 1 56 3 l53 6 -7 86 c-3
47 -9 96 -12 109 -10 43 12 21 47 -46 31 -59 39 -67 67 -70 31 -3 34 0 68 67
19 39 39 71 43 71 4 0 3 -46 -4 -102 -6 -57 -9 -106 -5 -109 3 -4 29 -9 57
-12 l51 -6 7 102 c3 56 7 143 7 192 l2 90 -56 3 -57 3 -56 -86 -56 -87 -20 34
c-11 18 -36 57 -55 86 -35 52 -35 52 -88 52 -30 0 -56 -3 -58 -7z"/>
<path d="M2285 1149 c-34 -41 -55 -83 -99 -201 -42 -114 -43 -126 -13 -137 62
-23 65 -23 80 6 13 24 19 27 61 24 40 -2 46 0 46 17 0 11 3 34 6 51 6 29 5 31
-25 31 -36 0 -38 10 -15 66 19 45 15 49 81 -99 24 -56 48 -106 52 -110 8 -8
86 18 104 33 5 4 -31 84 -78 179 l-87 171 -43 0 c-36 0 -48 -5 -70 -31z"/>
<path d="M2620 990 l0 -190 60 0 60 0 0 190 0 190 -60 0 -60 0 0 -190z"/>
<path d="M2816 1172 c-4 -8 12 -374 17 -378 1 -1 26 1 56 3 l54 6 -7 66 c-3
36 -9 88 -12 115 -10 67 4 56 65 -57 66 -121 68 -124 122 -131 47 -7 47 -7 52
26 4 18 9 106 13 196 l7 162 -50 0 -50 0 -8 -100 c-3 -55 -11 -100 -16 -100
-5 0 -9 4 -9 9 0 5 -27 50 -60 100 l-60 91 -54 0 c-30 0 -57 -4 -60 -8z"/>
<path d="M4677 1138 c-4 -24 -9 -109 -13 -189 l-7 -146 112 -8 c62 -4 114 -5
116 -3 1 1 6 27 10 56 l7 52 -30 0 c-16 0 -44 3 -62 7 l-33 6 7 134 7 133 -55
0 -54 0 -5 -42z"/>
<path d="M5835 771 c-144 -68 -145 -147 -3 -215 155 -73 387 -109 713 -109
354 0 618 44 762 128 71 42 85 100 36 148 -31 29 -141 83 -150 73 -4 -3 -1 -6
5 -6 25 0 72 -52 72 -80 0 -178 -932 -248 -1323 -100 -134 51 -155 122 -52
178 40 22 -1 10 -60 -17z"/>
</g>
</svg>
